<svg xmlns="http://www.w3.org/2000/svg" viewBox="0 0 400 560" fill="none">
  <defs>
    <linearGradient id="bg" x1="0" y1="0" x2="400" y2="560" gradientUnits="userSpaceOnUse">
      <stop offset="0%" stop-color="#0a1628"/>
      <stop offset="100%" stop-color="#1a0a3e"/>
    </linearGradient>
  </defs>
  <rect width="400" height="560" rx="20" fill="url(#bg)"/>
  <circle cx="200" cy="200" r="120" fill="#4488ff10" stroke="#4488ff40" stroke-width="2"/>
  <path d="M200 100 L240 150 L300 140 L270 200 L320 230 L260 250 L280 310 L200 270 L120 310 L140 250 L80 230 L130 200 L100 140 L160 150 Z" fill="#4488ff" opacity="0.7"/>
  <path d="M160 160 L200 130 L240 160" stroke="#88bbff" stroke-width="3" fill="none"/>
  <circle cx="180" cy="185" r="8" fill="#88bbff"/>
  <circle cx="220" cy="185" r="8" fill="#88bbff"/>
  <circle cx="180" cy="185" r="4" fill="#0a1628"/>
  <circle cx="220" cy="185" r="4" fill="#0a1628"/>
  <text x="200" y="440" text-anchor="middle" fill="#88bbff" font-size="28" font-weight="bold" font-family="serif">Azure Dragon</text>
  <text x="200" y="470" text-anchor="middle" fill="#4488ff80" font-size="14" font-family="sans-serif">Mythical Creatures #2</text>
  <text x="200" y="520" text-anchor="middle" fill="#aa66ff" font-size="12" font-family="sans-serif">◆ EPIC ◆</text>
</svg>
