<svg xmlns="http://www.w3.org/2000/svg" viewBox="0 0 400 560" fill="none">
  <defs>
    <linearGradient id="bg" x1="0" y1="0" x2="400" y2="560" gradientUnits="userSpaceOnUse">
      <stop offset="0%" stop-color="#1a0a2e"/>
      <stop offset="100%" stop-color="#4a0e0e"/>
    </linearGradient>
    <linearGradient id="fire" x1="200" y1="400" x2="200" y2="100" gradientUnits="userSpaceOnUse">
      <stop offset="0%" stop-color="#ff4500"/>
      <stop offset="50%" stop-color="#ff6b35"/>
      <stop offset="100%" stop-color="#ffd700"/>
    </linearGradient>
  </defs>
  <rect width="400" height="560" rx="20" fill="url(#bg)"/>
  <circle cx="200" cy="200" r="120" fill="#ff450020" stroke="#ff6b35" stroke-width="2"/>
  <path d="M200 120 L230 180 L280 160 L250 220 L300 240 L240 260 L260 320 L200 280 L140 320 L160 260 L100 240 L150 220 L120 160 L170 180 Z" fill="url(#fire)" opacity="0.9"/>
  <circle cx="185" cy="190" r="6" fill="#fff"/>
  <circle cx="215" cy="190" r="6" fill="#fff"/>
  <path d="M160 350 Q200 380 240 350" stroke="#ff6b35" stroke-width="3" fill="none"/>
  <text x="200" y="440" text-anchor="middle" fill="#ffd700" font-size="28" font-weight="bold" font-family="serif">Crimson Phoenix</text>
  <text x="200" y="470" text-anchor="middle" fill="#ff6b3580" font-size="14" font-family="sans-serif">Mythical Creatures #1</text>
  <text x="200" y="520" text-anchor="middle" fill="#ffd70080" font-size="12" font-family="sans-serif">★ LEGENDARY ★</text>
</svg>
