<svg xmlns="http://www.w3.org/2000/svg" viewBox="0 0 400 560" fill="none">
  <defs>
    <linearGradient id="bg" x1="0" y1="0" x2="400" y2="560" gradientUnits="userSpaceOnUse">
      <stop offset="0%" stop-color="#0a1028"/>
      <stop offset="100%" stop-color="#1a0a2e"/>
    </linearGradient>
    <linearGradient id="shell" x1="200" y1="150" x2="200" y2="300" gradientUnits="userSpaceOnUse">
      <stop offset="0%" stop-color="#ffd700"/>
      <stop offset="100%" stop-color="#228855"/>
    </linearGradient>
  </defs>
  <rect width="400" height="560" rx="20" fill="url(#bg)"/>
  <circle cx="200" cy="100" r="5" fill="#fff" opacity="0.6"/>
  <circle cx="150" cy="80" r="3" fill="#fff" opacity="0.4"/>
  <circle cx="280" cy="110" r="4" fill="#fff" opacity="0.5"/>
  <circle cx="120" cy="130" r="3" fill="#fff" opacity="0.3"/>
  <circle cx="300" cy="70" r="3" fill="#fff" opacity="0.4"/>
  <ellipse cx="200" cy="230" rx="90" ry="70" fill="url(#shell)" opacity="0.8"/>
  <ellipse cx="200" cy="230" rx="60" ry="45" fill="#228855" opacity="0.5"/>
  <line x1="200" y1="185" x2="200" y2="275" stroke="#33aa66" stroke-width="1" opacity="0.5"/>
  <line x1="145" y1="230" x2="255" y2="230" stroke="#33aa66" stroke-width="1" opacity="0.5"/>
  <circle cx="200" cy="310" r="20" fill="#337755" opacity="0.7"/>
  <circle cx="193" cy="305" r="4" fill="#aaffcc"/>
  <circle cx="207" cy="305" r="4" fill="#aaffcc"/>
  <ellipse cx="140" cy="250" rx="15" ry="10" fill="#337755" opacity="0.6"/>
  <ellipse cx="260" cy="250" rx="15" ry="10" fill="#337755" opacity="0.6"/>
  <text x="200" y="440" text-anchor="middle" fill="#ffd700" font-size="26" font-weight="bold" font-family="serif">Celestial Turtle</text>
  <text x="200" y="470" text-anchor="middle" fill="#ffd70060" font-size="14" font-family="sans-serif">Mythical Creatures #8</text>
  <text x="200" y="520" text-anchor="middle" fill="#ffd70080" font-size="12" font-family="sans-serif">★ LEGENDARY ★</text>
</svg>
